<svg id="Capa_1" data-name="Capa 1" xmlns="http://www.w3.org/2000/svg" viewBox="0 0 40 40"><defs><style>.cls-1{fill:#444;}.cls-1,.cls-2,.cls-3{stroke:#000;stroke-miterlimit:10;stroke-width:0.75px;}.cls-2{fill:none;}.cls-3{fill:#f27019;}.cls-4{fill:#f4e52a;}</style></defs><circle class="cls-1" cx="15.77" cy="24.95" r="13"/><path class="cls-1" d="M18.86,10.65l-1,1.83c-.29.53,1.13,1.87,3.17,3s3.93,1.62,4.22,1.09l1-1.83"/><ellipse class="cls-1" cx="22.55" cy="12.69" rx="1.08" ry="4.22" transform="translate(0.53 26.29) rotate(-61.08)"/><path class="cls-2" d="M22.55,12.69s2.57-5.2,7.69-5.19"/><polygon class="cls-3" points="34.89 2.93 34.73 6.34 37.45 8.41 34.16 9.32 33.03 12.54 31.16 9.69 27.74 9.62 29.87 6.95 28.89 3.68 32.08 4.88 34.89 2.93"/><polygon class="cls-4" points="33.43 5.58 33.36 6.99 34.49 7.84 33.13 8.21 32.66 9.55 31.89 8.37 30.48 8.34 31.36 7.24 30.95 5.88 32.27 6.38 33.43 5.58"/></svg>