<svg id="Capa_1" data-name="Capa 1" xmlns="http://www.w3.org/2000/svg" viewBox="0 0 130.99 131"><defs><style>.cls-1,.cls-2,.cls-3{fill:#f4e52a;}.cls-2,.cls-3,.cls-4,.cls-5,.cls-6,.cls-7{stroke:#000;stroke-miterlimit:10;}.cls-3{stroke-width:0.5px;}.cls-4,.cls-7{fill:none;}.cls-5{fill:#b24b06;}.cls-6{fill:#f90d0d;}.cls-7{fill-rule:evenodd;}.cls-8{fill:#1d1d1b;}</style></defs><circle class="cls-1" cx="65.5" cy="65.5" r="65"/><path d="M65.5,1A64.5,64.5,0,1,1,1,65.5,64.57,64.57,0,0,1,65.5,1m0-1A65.5,65.5,0,1,0,131,65.5,65.5,65.5,0,0,0,65.5,0Z"/><path class="cls-2" d="M47,51c0,11-4.26,20-9.5,20s-9.5-9-9.5-20"/><path class="cls-3" d="M83,51c0,11-4.26,20-9.5,20s-9.5-9-9.5-20"/><path class="cls-4" d="M45,18a12.49,12.49,0,0,0-15.52,8.46"/><path class="cls-2" d="M63.88,51c0,11,4.25,20,9.5,20s9.5-9,9.5-20"/><path class="cls-4" d="M65.87,18a12.49,12.49,0,0,1,15.52,8.46"/><path class="cls-5" d="M44.54,90.52a81.9,81.9,0,0,0-7.28,7.55,119.26,119.26,0,0,0-12.75,19.12l5.42,4.48a175.24,175.24,0,0,0,15.85-16.56A84,84,0,0,0,54.59,91.7"/><ellipse class="cls-6" cx="27.52" cy="119.06" rx="2.75" ry="3.66" transform="translate(-81.78 64.41) rotate(-50.42)"/><path class="cls-5" d="M35.3,100.51s2.5-.41,5.46,2,3,4.93,3,4.93"/><path class="cls-5" d="M46,104.77s0-2.49-3-5-5.47-2-5.47-2"/><path class="cls-7" d="M84,75a33.5,33.5,0,0,1-58,0"/><path class="cls-8" d="M55,88.5c-18.19,0-25.23.1-26.8-5.27C26.79,78.42,33,71.05,39.94,71.05S55,75.58,55,75.58s8.09-4.53,15-4.53S83.2,78.42,81.8,83.23C80.23,88.6,73.18,88.5,55,88.5Z"/></svg>