<svg id="Capa_1" data-name="Capa 1" xmlns="http://www.w3.org/2000/svg" viewBox="0 0 169.25 320"><defs><style>.cls-1,.cls-2{fill:#007aff;}.cls-1,.cls-3,.cls-4{stroke:#000;stroke-miterlimit:10;}.cls-3{fill:none;}.cls-4{fill:#9e9b9b;}</style></defs><path class="cls-1" d="M161.62,111.91c6.41-38.74,6.44-61.67,6.44-61.67s-14.47,24.25-13.66,33.7S161.62,111.91,161.62,111.91Z"/><path class="cls-1" d="M6.44,111.91C0,73.17,0,50.24,0,50.24s14.47,24.25,13.66,33.7S6.44,111.91,6.44,111.91Z"/><path class="cls-2" d="M119.24,30s37,10.14,49,20.27c0,0-8.29,42.34-6.45,61.67,0,0-.92,13.81-1.84,19.33a81.2,81.2,0,0,1,.36,8.76c0,6-.65,14.21-3.12,21.61,0,0,3.68,12,0,23,0,0,2.76,12,0,22.1,0,0,4.6,8.28.46,21.63,0,0,6,8.74.46,21.63,0,0,4.6,11,.92,23,0,0,2.76,12.89,0,22.09,0,0,4.6,11.05-4.6,17.49s-71.34,7.78-71.34,7.78h2.42S23.34,319,14.14,312.57s-4.61-17.49-4.61-17.49c-2.76-9.2,0-22.09,0-22.09-3.68-12,.92-23,.92-23-5.52-12.89.46-21.63.46-21.63-4.14-13.35.46-21.63.46-21.63-2.76-10.13,0-22.1,0-22.1-3.68-11,0-23,0-23C8.91,154.21,8.29,146,8.25,140a84.52,84.52,0,0,1,.36-8.76c-.92-5.52-1.84-19.33-1.84-19.33C8.61,92.58.33,50.24.33,50.24c12-10.13,49-20.27,49-20.27"/><path class="cls-3" d="M119.24,30s37,10.14,49,20.27c0,0-8.29,42.34-6.45,61.67,0,0-.92,13.81-1.84,19.33a81.2,81.2,0,0,1,.36,8.76c0,6-.65,14.21-3.12,21.61,0,0,3.68,12,0,23,0,0,2.76,12,0,22.1,0,0,4.6,8.28.46,21.63,0,0,6,8.74.46,21.63,0,0,4.6,11,.92,23,0,0,2.76,12.89,0,22.09,0,0,4.6,11.05-4.6,17.49s-71.34,7.78-71.34,7.78h2.42S23.34,319,14.14,312.57s-4.61-17.49-4.61-17.49c-2.76-9.2,0-22.09,0-22.09-3.68-12,.92-23,.92-23-5.52-12.89.46-21.63.46-21.63-4.14-13.35.46-21.63.46-21.63-2.76-10.13,0-22.1,0-22.1-3.68-11,0-23,0-23C8.91,154.21,8.29,146,8.25,140a84.52,84.52,0,0,1,.36-8.76c-.92-5.52-1.84-19.33-1.84-19.33C8.61,92.58.33,50.24.33,50.24c12-10.13,49-20.27,49-20.27"/><path class="cls-2" d="M2.83,62.06S39.5,50.67,84.26,56.52"/><path class="cls-3" d="M2.83,62.06S39.5,50.67,84.26,56.52"/><path class="cls-2" d="M5,78.53S60.75,73.23,84.2,77"/><path class="cls-3" d="M5,78.53S60.75,73.23,84.2,77"/><path class="cls-2" d="M6.83,98.38S60.66,94,84.2,95.56"/><path class="cls-3" d="M6.83,98.38S60.66,94,84.2,95.56"/><path class="cls-2" d="M7.47,119.4S57.66,113,84.2,116"/><path class="cls-3" d="M7.47,119.4S57.66,113,84.2,116"/><path class="cls-2" d="M84.2,137.57S22,137.41,8.49,140"/><path class="cls-3" d="M84.2,137.57S22,137.41,8.49,140"/><path class="cls-2" d="M11.72,161.61s49.6-3.36,72.48-1.38"/><path class="cls-3" d="M11.72,161.61s49.6-3.36,72.48-1.38"/><path class="cls-2" d="M11.72,184.62s57.4-3.09,72.48-2.32"/><path class="cls-3" d="M11.72,184.62s57.4-3.09,72.48-2.32"/><path class="cls-2" d="M11.72,206.72s66-2.68,72.48-1.14"/><path class="cls-3" d="M11.72,206.72s66-2.68,72.48-1.14"/><path class="cls-2" d="M11.24,228.35s68.62-1.1,73,0"/><path class="cls-3" d="M11.24,228.35s68.62-1.1,73,0"/><path class="cls-2" d="M10.76,250s71.49.05,73.44,1"/><path class="cls-3" d="M10.76,250s71.49.05,73.44,1"/><path class="cls-2" d="M9.81,273s71.53-1.09,74.39,0"/><path class="cls-3" d="M9.81,273s71.53-1.09,74.39,0"/><path class="cls-2" d="M9.81,295.08s64.28-1.32,74.39,0"/><path class="cls-3" d="M9.81,295.08s64.28-1.32,74.39,0"/><path class="cls-3" d="M165.56,62.06s-36.67-11.39-81.43-5.54"/><path class="cls-2" d="M163.41,78.53S107.64,73.23,84.2,77"/><path class="cls-3" d="M163.41,78.53S107.64,73.23,84.2,77"/><path class="cls-2" d="M161.57,98.38S107.73,94,84.2,95.56"/><path class="cls-3" d="M161.57,98.38S107.73,94,84.2,95.56"/><path class="cls-2" d="M160.92,119.4S110.73,113,84.2,116"/><path class="cls-3" d="M160.92,119.4S110.73,113,84.2,116"/><path class="cls-2" d="M84.2,137.57s62.2-.16,75.71,2.43"/><path class="cls-3" d="M84.2,137.57s62.2-.16,75.71,2.43"/><path class="cls-2" d="M156.68,161.61s-49.61-3.36-72.48-1.38"/><path class="cls-3" d="M156.68,161.61s-49.61-3.36-72.48-1.38"/><path class="cls-2" d="M156.68,184.62s-57.41-3.09-72.48-2.32"/><path class="cls-3" d="M156.68,184.62s-57.41-3.09-72.48-2.32"/><path class="cls-2" d="M156.68,206.72s-66-2.68-72.48-1.14"/><path class="cls-3" d="M156.68,206.72s-66-2.68-72.48-1.14"/><path class="cls-2" d="M157.15,228.35s-68.62-1.1-72.95,0"/><path class="cls-3" d="M157.15,228.35s-68.62-1.1-72.95,0"/><path class="cls-2" d="M157.63,250s-71.48.05-73.43,1"/><path class="cls-3" d="M157.63,250s-71.48.05-73.43,1"/><path class="cls-2" d="M158.58,273s-71.53-1.09-74.38,0"/><path class="cls-3" d="M158.58,273s-71.53-1.09-74.38,0"/><path class="cls-2" d="M158.58,295.08s-64.28-1.32-74.38,0"/><path class="cls-3" d="M158.58,295.08s-64.28-1.32-74.38,0"/><path class="cls-1" d="M84.26,56.52c29.46,0,35-18.75,35-18.75V12c0-11-6.79-12-6.79-12H56.07s-6.79,1-6.79,12V37.77S54.81,56.52,84.26,56.52Z"/><path class="cls-3" d="M114.41,9.28S106.12,28.61,84,28.61,53.66,9.28,53.66,9.28"/><line class="cls-2" x1="84.03" y1="28.61" x2="84.26" y2="317.13"/><line class="cls-3" x1="84.03" y1="28.61" x2="84.26" y2="317.13"/><polyline class="cls-4" points="84.04 36.7 86.58 36.7 88.88 49.57 84.04 49.57 84.03 49.57 79.2 49.57 81.5 36.7 84.03 36.7"/><rect class="cls-1" x="82.28" y="43.13" width="3.51" height="4.33"/></svg>