
<svg id="Capa_1" data-name="Capa 1" xmlns="http://www.w3.org/2000/svg" viewBox="0 0 122.63 274.93"><defs><style>.cls-1{fill:#fff;}.cls-1,.cls-2,.cls-3,.cls-4,.cls-5{stroke:#000;stroke-miterlimit:10;}.cls-2{fill:#ededed;}.cls-4{fill:#f4e52a;}.cls-5{fill:none;}</style></defs><ellipse class="cls-1" cx="61.32" cy="260.89" rx="43.17" ry="14.04"/><path class="cls-1" d="M72.18,142.52s-17.63,62.32,4.2,111.81c0,0-3.26,2.44-15.06,2.44s-15.06-2.44-15.06-2.44c21.82-49.49,4.19-111.81,4.19-111.81"/><path class="cls-2" d="M120.36,54.05a80.44,80.44,0,0,1,2.27,19.07c0,38.94-27.45,70.5-61.31,70.5S0,112.06,0,73.12A80.44,80.44,0,0,1,2.27,54.05"/><path class="cls-1" d="M2.27,54.05a73.6,73.6,0,0,1,14.18-29s7-1.91,44.87-1.91,44.86,1.91,44.86,1.91a73.6,73.6,0,0,1,14.18,29"/><circle class="cls-3" cx="70.47" cy="70.53" r="1.96"/><circle class="cls-3" cx="112.86" cy="60.81" r="1.96"/><circle class="cls-3" cx="100.58" cy="112.62" r="1.96"/><circle class="cls-3" cx="72.44" cy="133.08" r="1.96"/><circle class="cls-3" cx="10.71" cy="72.49" r="1.96"/><circle class="cls-3" cx="16.3" cy="62.77" r="1.96"/><path class="cls-1" d="M89.1,96.6l7.53.36a1.91,1.91,0,0,0,1.25-.76l13.19-18a1.94,1.94,0,0,0-.42-2.71L92.6,62.25a2,2,0,0,0-1.44-.35h.07l-7.7-.34"/><path class="cls-1" d="M87.55,96.28l-18-13.19a1.94,1.94,0,0,1-.42-2.71l13.19-18a1.92,1.92,0,0,1,1.26-.77,2,2,0,0,1,1.44.35L103,75.1a2,2,0,0,1,.42,2.71l-13.19,18A1.93,1.93,0,0,1,87.55,96.28Z"/><line class="cls-1" x1="111.55" y1="76.75" x2="103.85" y2="76.41"/><path class="cls-1" d="M87.51,130.22l6.77-3.33a2,2,0,0,0,.72-1.28l2.79-22.18a1.94,1.94,0,0,0-1.68-2.16L73.93,98.48a1.93,1.93,0,0,0-1.43.39l.06,0-6.9,3.44"/><path class="cls-1" d="M86,130.69,63.82,127.9a1.94,1.94,0,0,1-1.68-2.16l2.79-22.18a2,2,0,0,1,.73-1.29,2,2,0,0,1,1.43-.39l22.18,2.79A1.93,1.93,0,0,1,91,106.83L88.16,129A1.93,1.93,0,0,1,86,130.69Z"/><line class="cls-1" x1="97.53" y1="101.97" x2="90.63" y2="105.41"/><path class="cls-1" d="M66.31,121l.81-7.49a2,2,0,0,0-.69-1.3L49.19,97.92a1.93,1.93,0,0,0-2.72.26L32.23,115.42a2,2,0,0,0-.44,1.42v-.07L31,124.43"/><path class="cls-1" d="M65.89,122.48,51.66,139.72a2,2,0,0,1-2.73.26L31.7,125.74a1.93,1.93,0,0,1-.7-1.31,2,2,0,0,1,.44-1.41l14.23-17.24a2,2,0,0,1,2.73-.26l17.23,14.24A1.93,1.93,0,0,1,65.89,122.48Z"/><line class="cls-1" x1="47.82" y1="97.36" x2="47.03" y2="105.03"/><circle class="cls-3" cx="25.93" cy="70.53" r="1.96"/><circle class="cls-3" cx="64.43" cy="87.99" r="1.96"/><path class="cls-2" d="M81.23,75.69a21,21,0,0,1,29.68,29.68Z"/><path class="cls-4" d="M83.8,78.26a17.36,17.36,0,0,1,24.55,24.54Z"/><line class="cls-5" x1="108.35" y1="78.26" x2="96.07" y2="90.53"/><line class="cls-5" x1="113.43" y1="90.51" x2="96.07" y2="90.53"/><line class="cls-5" x1="96.09" y1="73.17" x2="96.07" y2="90.53"/><path class="cls-2" d="M2.27,54.06s8.44-6,59.05-6,59,6,59,6"/><path class="cls-2" d="M28.34,113.46a21,21,0,1,1,0-42Z"/><path class="cls-4" d="M28.34,109.83a17.36,17.36,0,1,1,0-34.71Z"/><line class="cls-5" x1="10.98" y1="92.47" x2="28.34" y2="92.47"/><line class="cls-5" x1="16.05" y1="80.22" x2="28.34" y2="92.47"/><line class="cls-5" x1="16.05" y1="104.73" x2="28.34" y2="92.47"/><path class="cls-2" d="M28.34,113.46a21,21,0,1,0,0-42Z"/><path class="cls-4" d="M28.34,109.83a17.36,17.36,0,1,0,0-34.71Z"/><line class="cls-5" x1="45.7" y1="92.47" x2="28.34" y2="92.47"/><line class="cls-5" x1="40.63" y1="80.22" x2="28.34" y2="92.47"/><line class="cls-5" x1="40.63" y1="104.73" x2="28.34" y2="92.47"/><rect x="36.43" y="-4.17" width="2.82" height="111.77" transform="translate(-18.23 20.69) rotate(-24.85)"/><path class="cls-1" d="M51.81,45.52l-7.49-.81a1.93,1.93,0,0,0-1.3.69L28.78,62.64A1.93,1.93,0,0,0,29,65.36L46.28,79.6a1.9,1.9,0,0,0,1.41.43h-.07l7.67.78"/><path class="cls-1" d="M53.34,45.93,70.58,60.17a1.93,1.93,0,0,1,.26,2.72L56.6,80.13a1.91,1.91,0,0,1-1.31.69,1.94,1.94,0,0,1-1.42-.43L36.64,66.15a1.93,1.93,0,0,1-.26-2.72L50.62,46.19A1.93,1.93,0,0,1,53.34,45.93Z"/><line class="cls-1" x1="28.22" y1="64.01" x2="35.89" y2="64.8"/><path class="cls-5" d="M2.27,54.06s8.44,6,59.05,6,59-6,59-6"/></svg>