<svg id="Capa_1" data-name="Capa 1" xmlns="http://www.w3.org/2000/svg" viewBox="0 0 130.99 131"><defs><style>.cls-1{fill:#f4e52a;}.cls-2{fill:#fff;}.cls-3{fill:#1d1d1b;}.cls-4,.cls-5{fill:none;}.cls-4,.cls-5,.cls-6{stroke:#000;stroke-miterlimit:10;}.cls-5{fill-rule:evenodd;}.cls-6{fill:#007aff;}.cls-7{fill:#191918;}</style></defs><circle class="cls-1" cx="65.5" cy="65.5" r="65"/><path d="M65.5,1A64.5,64.5,0,1,1,1,65.5,64.57,64.57,0,0,1,65.5,1m0-1A65.5,65.5,0,1,0,131,65.5,65.5,65.5,0,0,0,65.5,0Z"/><ellipse class="cls-2" cx="37.5" cy="51" rx="9" ry="19.5"/><path d="M37.5,32c4.6,0,8.5,8.7,8.5,19s-3.9,19-8.5,19S29,61.3,29,51s3.89-19,8.5-19m0-1C32.25,31,28,40,28,51s4.25,20,9.5,20,9.5-9,9.5-20-4.26-20-9.5-20Z"/><ellipse class="cls-2" cx="73.5" cy="51" rx="9" ry="19.5"/><path d="M73.5,32c4.6,0,8.5,8.7,8.5,19s-3.9,19-8.5,19S65,61.3,65,51s3.89-19,8.5-19m0-1C68.25,31,64,40,64,51s4.25,20,9.5,20,9.5-9,9.5-20-4.26-20-9.5-20Z"/><ellipse class="cls-3" cx="34" cy="51" rx="6" ry="13"/><ellipse class="cls-3" cx="70" cy="51" rx="6" ry="13"/><path class="cls-4" d="M33.49,24.48A12.49,12.49,0,0,0,49,16"/><path class="cls-4" d="M77.68,24.48A12.49,12.49,0,0,1,62.16,16"/><path class="cls-5" d="M84,75a33.5,33.5,0,0,1-58,0"/><path class="cls-6" d="M93.31,60.8a6.41,6.41,0,0,0,2.51-5.89C95.25,49.05,91,40.66,91,40.66s-4.25,8.39-4.82,14.25a6.42,6.42,0,0,0,2.5,5.89,2.46,2.46,0,0,0,.46.23,5.16,5.16,0,0,0,3.71,0A2,2,0,0,0,93.31,60.8Z"/><path class="cls-7" d="M55,88.5c18.18,0,25.23.1,26.8-5.27C83.2,78.42,77,71.05,70.05,71.05s-15,4.53-15,4.53-8.09-4.53-15.06-4.53S26.79,78.42,28.2,83.23C29.77,88.6,36.81,88.5,55,88.5Z"/></svg>