<svg id="Capa_1" data-name="Capa 1" xmlns="http://www.w3.org/2000/svg" viewBox="0 0 64.42 320"><defs><style>.cls-1{fill:#9e9b9b;}.cls-1,.cls-2,.cls-3,.cls-4{stroke:#000;stroke-miterlimit:10;}.cls-2{fill:#fff;}.cls-3{fill:none;}</style></defs><path class="cls-1" d="M15.39,60.15s-.07-4.44,0-6a3.89,3.89,0,0,1,1.09-2.49l3.05-2.42-6.08-6.07-.09.08S9,46.69,6.68,48.58s-3.84,8.23-3.84,8.23"/><path class="cls-1" d="M17.09,71.53V62.26A2.24,2.24,0,0,0,16,60.36l-5.65-3.53L4.74,60.36a2.24,2.24,0,0,0-1.06,1.9v9.27"/><path class="cls-1" d="M9.12,60.15a4,4,0,1,1-4-4A4,4,0,0,1,9.12,60.15Z"/><rect class="cls-1" x="19.45" y="11.14" width="23.85" height="41.45" transform="translate(31.72 -12.85) rotate(45)"/><rect class="cls-2" x="16.63" y="-0.67" width="30.72" height="65.31" rx="4.92" transform="translate(-13.25 31.99) rotate(-45)"/><path class="cls-3" d="M15.18,2.61l.61.61a2.39,2.39,0,0,1,.13,3.37L6.6,15.91a2.39,2.39,0,0,1-3.37-.13l-.61-.61"/><line class="cls-2" x1="8.85" y1="11.3" x2="11.31" y2="8.85"/><circle class="cls-2" cx="12.66" cy="7.5" r="0.31"/><ellipse class="cls-1" cx="10.33" cy="71.53" rx="6.65" ry="3.6"/><path class="cls-1" d="M14.09,213.32,12.63,73.78s-.34-2.25-2.25-2.25-2.25,2.25-2.25,2.25L6.68,213.32"/><path class="cls-1" d="M7.8,105.34a2.81,2.81,0,0,1,2.58-1.18"/><path class="cls-1" d="M13,105.34a2.79,2.79,0,0,0-2.58-1.18"/><path class="cls-1" d="M7.46,138.83a3.7,3.7,0,0,1,2.92-1.25"/><path class="cls-1" d="M13.31,138.83a3.71,3.71,0,0,0-2.93-1.25"/><path class="cls-1" d="M7,181.72a5.05,5.05,0,0,1,3.37-1.32"/><path class="cls-1" d="M13.76,181.72a5.1,5.1,0,0,0-3.38-1.32"/><path class="cls-4" d="M10.38,320c8.4,0,7.68-5.31,7.68-5.31V216.5a9.64,9.64,0,0,0-15.35,0v98.19S2,320,10.38,320Z"/></svg>