<svg id="Capa_1" data-name="Capa 1" xmlns="http://www.w3.org/2000/svg" viewBox="0 0 222.86 265.6"><defs><style>.cls-1,.cls-11{fill:#f90d0d;}.cls-1,.cls-2,.cls-3,.cls-4{stroke:#000;stroke-miterlimit:10;}.cls-2,.cls-7{fill:#9e9b9b;}.cls-4{fill:none;}.cls-5{fill:#007aff;}.cls-6{fill:#ededed;}.cls-8{fill:#f27019;}.cls-9{fill:#06ce35;}.cls-10{fill:#f4e52a;}</style></defs><path class="cls-1" d="M195.07,228c-12.66,13-28,20.58-44.61,20.58-43.29,0-78.39-51.88-78.39-115.87s35.1-115.88,78.39-115.88c16.24,0,31.32,7.3,43.83,19.79l.1-.07C177.93,13.92,155.67,0,131.15,0H113.54C53.07,0,4.06,59.42,4.06,132.73s49,132.73,109.48,132.73h17.61c25.33,0,48.26-14.86,64.85-38.88"/><rect class="cls-2" y="49.45" width="115.84" height="166.56" rx="20.31"/><ellipse class="cls-2" cx="111.95" cy="99.8" rx="12.77" ry="16.49"/><rect class="cls-3" y="55.89" width="97.81" height="153.67" rx="20.31"/><ellipse class="cls-2" cx="115.7" cy="99.8" rx="9.03" ry="13.32"/><rect class="cls-4" x="103.45" y="136.78" width="10.01" height="44.62" rx="4.3"/><path class="cls-1" d="M195.07,228c-12.66,13-28,20.58-44.61,20.58a56.46,56.46,0,0,1-27.57-7.37h0c23-23.91,38-62.81,38-106.72,0-45.45-16-85.51-40.44-109.17L120,26a57.2,57.2,0,0,1,30.51-9.11c16.24,0,31.32,7.3,43.83,19.79l.1-.07c17.54,24.18,28.47,58.31,28.47,96.14,0,36.65-10.26,69.83-26.86,93.85"/><path class="cls-4" d="M152.16,190.66s6.55,21,24.89,23.13,37.36-11.79,43.46-51"/><path class="cls-4" d="M131.31,37.57c1-4,10.92-7.85,22.77-7,24.22,1.82,35,3.39,54.64,56.71"/><path class="cls-4" d="M214.41,77C213.22,87.9,199.18,96.4,179.23,96.4s-23.46-5.35-23.46-5.35"/><ellipse class="cls-2" cx="185.27" cy="175.07" rx="19.86" ry="18.98" transform="translate(-18.69 327.95) rotate(-80.23)"/><ellipse class="cls-5" cx="48.35" cy="132.73" rx="11.16" ry="13.91"/><ellipse class="cls-6" cx="61.57" cy="107.16" rx="8.52" ry="10.63"/><ellipse class="cls-7" cx="48.35" cy="84.72" rx="7.97" ry="9.93"/><ellipse class="cls-8" cx="14.99" cy="108.73" rx="7.97" ry="9.93"/><ellipse class="cls-9" cx="14.99" cy="156.73" rx="7.97" ry="9.93"/><ellipse class="cls-6" cx="48.35" cy="180.73" rx="7.97" ry="9.93"/><ellipse class="cls-10" cx="81.7" cy="156.73" rx="7.97" ry="9.93"/><ellipse class="cls-5" cx="81.7" cy="108.73" rx="7.97" ry="9.93"/><ellipse class="cls-9" cx="37.48" cy="105.87" rx="8.52" ry="10.63"/><ellipse class="cls-10" cx="24.25" cy="131.03" rx="8.52" ry="10.63"/><ellipse class="cls-6" cx="27.82" cy="86.04" rx="6.71" ry="8.37"/><ellipse class="cls-11" cx="68.87" cy="86.04" rx="6.71" ry="8.37"/><ellipse class="cls-10" cx="27.82" cy="179.41" rx="6.71" ry="8.37"/><ellipse class="cls-9" cx="68.87" cy="179.41" rx="6.71" ry="8.37"/><ellipse class="cls-7" cx="35.12" cy="157.89" rx="8.52" ry="10.63"/><ellipse class="cls-7" cx="59.22" cy="159.58" rx="8.52" ry="10.63"/><ellipse class="cls-8" cx="72.44" cy="134.42" rx="8.52" ry="10.63"/><ellipse class="cls-10" cx="87.61" cy="132.73" rx="2.7" ry="3.36"/><ellipse class="cls-7" cx="9.09" cy="132.73" rx="2.7" ry="3.36"/><ellipse class="cls-10" cx="84.36" cy="89.87" rx="2.7" ry="3.36"/><ellipse class="cls-9" cx="12.33" cy="89.87" rx="2.7" ry="3.36"/><ellipse class="cls-7" cx="84.36" cy="175.59" rx="2.7" ry="3.36"/><ellipse class="cls-6" cx="12.33" cy="175.59" rx="2.7" ry="3.36"/><ellipse class="cls-7" cx="37.46" cy="74.58" rx="2.7" ry="3.36"/><ellipse class="cls-7" cx="59.24" cy="74.58" rx="2.7" ry="3.36"/><ellipse class="cls-7" cx="37.46" cy="190.87" rx="2.7" ry="3.36"/><ellipse class="cls-7" cx="59.24" cy="190.87" rx="2.7" ry="3.36"/></svg>