<svg id="Capa_1" data-name="Capa 1" xmlns="http://www.w3.org/2000/svg" xmlns:xlink="http://www.w3.org/1999/xlink" viewBox="0 0 130.99 131"><defs><style>.cls-1{fill:url(#Degradado_sin_nombre_8);}.cls-2,.cls-5{fill:#fff;}.cls-3{fill:#1d1d1b;}.cls-4{fill:none;}.cls-4,.cls-5{stroke:#000;stroke-miterlimit:10;}.cls-6{fill:#191918;}</style><linearGradient id="Degradado_sin_nombre_8" x1="65.5" y1="130.5" x2="65.5" y2="0.5" gradientUnits="userSpaceOnUse"><stop offset="0" stop-color="#f4e52a"/><stop offset="1" stop-color="#f90d0d"/></linearGradient></defs><circle class="cls-1" cx="65.5" cy="65.5" r="65"/><path d="M65.5,1A64.5,64.5,0,1,1,1,65.5,64.57,64.57,0,0,1,65.5,1m0-1A65.5,65.5,0,1,0,131,65.5,65.51,65.51,0,0,0,65.5,0Z"/><ellipse class="cls-2" cx="37.5" cy="51" rx="9" ry="19.5"/><path d="M37.5,32c4.61,0,8.5,8.7,8.5,19s-3.89,19-8.5,19S29,61.3,29,51s3.89-19,8.5-19m0-1C32.25,31,28,40,28,51s4.25,20,9.5,20,9.5-9,9.5-20-4.25-20-9.5-20Z"/><ellipse class="cls-2" cx="73.5" cy="51" rx="9" ry="19.5"/><path d="M73.5,32c4.61,0,8.5,8.7,8.5,19s-3.89,19-8.5,19S65,61.3,65,51s3.89-19,8.5-19m0-1C68.25,31,64,40,64,51s4.25,20,9.5,20,9.5-9,9.5-20-4.25-20-9.5-20Z"/><ellipse class="cls-3" cx="34" cy="51" rx="6" ry="13"/><ellipse class="cls-3" cx="70" cy="51" rx="6" ry="13"/><path class="cls-4" d="M32.76,16.55A15.23,15.23,0,0,0,50.24,29.17"/><path class="cls-4" d="M79.77,16.55A15.23,15.23,0,0,1,62.29,29.17"/><ellipse class="cls-2" cx="76.5" cy="88.5" rx="12" ry="9"/><path d="M76.5,80C82.84,80,88,83.81,88,88.5S82.84,97,76.5,97,65,93.19,65,88.5,70.16,80,76.5,80m0-1C69.6,79,64,83.25,64,88.5S69.6,98,76.5,98,89,93.75,89,88.5,83.4,79,76.5,79Z"/><line class="cls-5" x1="64" y1="88.5" x2="89" y2="88.5"/><path class="cls-6" d="M55,88.5c18.19,0,25.23.1,26.8-5.27C83.21,78.42,77,71.05,70.05,71.05s-15,4.53-15,4.53-8.09-4.53-15-4.53S26.79,78.42,28.2,83.23C29.77,88.6,36.81,88.5,55,88.5Z"/></svg>