<svg id="Capa_1" data-name="Capa 1" xmlns="http://www.w3.org/2000/svg" viewBox="0 0 255.9 314.24"><defs><style>.cls-1{fill:#9e9b9b;}.cls-1,.cls-2,.cls-3,.cls-4,.cls-5,.cls-6,.cls-7,.cls-8{stroke:#000;stroke-miterlimit:10;}.cls-2{fill:#f4e52a;}.cls-4{fill:#f27019;}.cls-5{fill:#ededed;}.cls-6{fill:none;}.cls-7{fill:#f90d0d;}.cls-8{fill:#06ce35;}</style></defs><path class="cls-1" d="M161.62,280.59v18.77a14.89,14.89,0,0,1-14.89,14.88H109.34a14.88,14.88,0,0,1-14.88-14.88V279.72l3.68.87-.12,19a11.46,11.46,0,0,0,11.63,11.29h36.78a11.47,11.47,0,0,0,11.63-11.29V281.63"/><path class="cls-1" d="M161.62,33.65V14.88A14.89,14.89,0,0,0,146.73,0H109.34A14.88,14.88,0,0,0,94.46,14.88V34.52l3.68-.87L98,14.7A11.45,11.45,0,0,1,109.65,3.42h36.78A11.46,11.46,0,0,1,158.06,14.7V32.61"/><circle class="cls-1" cx="128.04" cy="157.12" r="128.04"/><circle class="cls-2" cx="128.04" cy="157.12" r="108.48"/><path class="cls-3" d="M158.71,228.48c2.24-15.34-21.05-30.83-21.05-30.83s-6.83,27.12,5.14,37A9.86,9.86,0,0,0,158.71,228.48Z"/><path class="cls-4" d="M154.53,228c.73-5-3.38-10.06-6.95-13.41a3.49,3.49,0,0,0-5.88,2.27c-.39,4.88,0,11.38,3.86,14.6A5.52,5.52,0,0,0,154.53,228Z"/><path class="cls-3" d="M191.45,124.77c-15.33-2.24-30.83,21-30.83,21s27.12,6.83,37-5.14A9.87,9.87,0,0,0,191.45,124.77Z"/><path class="cls-4" d="M191,129c-5-.73-10.06,3.38-13.41,7a3.48,3.48,0,0,0,2.27,5.87c4.88.4,11.38.06,14.6-3.85A5.52,5.52,0,0,0,191,129Z"/><path class="cls-3" d="M87.74,92c-2.24,15.34,21.05,30.84,21.05,30.84s6.83-27.13-5.14-37A9.87,9.87,0,0,0,87.74,92Z"/><path class="cls-4" d="M91.92,92.51c-.73,5,3.38,10.06,7,13.41a3.49,3.49,0,0,0,5.87-2.27c.4-4.89,0-11.38-3.86-14.6A5.52,5.52,0,0,0,91.92,92.51Z"/><ellipse class="cls-5" cx="210.92" cy="188.5" rx="10.66" ry="14.53"/><ellipse class="cls-2" cx="210.92" cy="188.5" rx="7.3" ry="10.88"/><ellipse class="cls-5" cx="89.41" cy="66.22" rx="14.53" ry="10.66"/><ellipse class="cls-2" cx="89.41" cy="66.22" rx="10.88" ry="7.3"/><path class="cls-5" d="M200.7,71.49a18.34,18.34,0,1,1-25.93,25.94Z"/><path class="cls-2" d="M198.46,73.74A15.16,15.16,0,1,1,177,95.18Z"/><line class="cls-6" x1="198.46" y1="95.18" x2="187.73" y2="84.46"/><line class="cls-6" x1="187.75" y1="99.63" x2="187.73" y2="84.46"/><line class="cls-6" x1="202.9" y1="84.48" x2="187.73" y2="84.46"/><path class="cls-5" d="M118.87,45.19a18.34,18.34,0,1,1,0,36.68Z"/><path class="cls-2" d="M118.87,78.7a15.17,15.17,0,1,0,0-30.33Z"/><line class="cls-6" x1="134.04" y1="63.53" x2="118.87" y2="63.53"/><line class="cls-6" x1="129.61" y1="74.24" x2="118.87" y2="63.53"/><line class="cls-6" x1="129.61" y1="52.82" x2="118.87" y2="63.53"/><path class="cls-5" d="M42.41,84.46a18.34,18.34,0,1,1,25.94,25.93Z"/><path class="cls-2" d="M66.1,108.15A15.17,15.17,0,0,0,44.65,86.7Z"/><line class="cls-6" x1="66.1" y1="86.7" x2="55.38" y2="97.43"/><line class="cls-6" x1="70.54" y1="97.41" x2="55.38" y2="97.43"/><line class="cls-6" x1="55.39" y1="82.26" x2="55.38" y2="97.43"/><path class="cls-5" d="M16.11,166.29a18.34,18.34,0,0,1,36.68,0Z"/><path class="cls-2" d="M49.62,166.29a15.17,15.17,0,1,0-30.34,0Z"/><line class="cls-6" x1="34.45" y1="151.12" x2="34.45" y2="166.29"/><line class="cls-6" x1="45.16" y1="155.55" x2="34.45" y2="166.29"/><line class="cls-6" x1="23.74" y1="155.55" x2="34.45" y2="166.29"/><path class="cls-5" d="M55.38,242.75a18.34,18.34,0,0,1,25.93-25.94Z"/><path class="cls-2" d="M79.07,219.06a15.17,15.17,0,0,0-21.45,21.45Z"/><line class="cls-6" x1="57.62" y1="219.06" x2="68.35" y2="229.78"/><line class="cls-6" x1="68.33" y1="214.62" x2="68.35" y2="229.78"/><line class="cls-6" x1="53.18" y1="229.77" x2="68.35" y2="229.78"/><path class="cls-5" d="M137.21,269.05a18.34,18.34,0,0,1,0-36.68Z"/><path class="cls-2" d="M137.21,265.88a15.17,15.17,0,0,1,0-30.34Z"/><line class="cls-6" x1="122.04" y1="250.71" x2="137.21" y2="250.71"/><line class="cls-6" x1="126.47" y1="240" x2="137.21" y2="250.71"/><line class="cls-6" x1="126.47" y1="261.42" x2="137.21" y2="250.71"/><path class="cls-5" d="M213.67,229.78a18.34,18.34,0,0,1-25.94-25.93Z"/><path class="cls-2" d="M211.42,227.54A15.16,15.16,0,0,1,190,206.09Z"/><line class="cls-6" x1="189.98" y1="227.54" x2="200.7" y2="216.81"/><line class="cls-6" x1="185.53" y1="216.83" x2="200.7" y2="216.81"/><line class="cls-6" x1="200.68" y1="231.98" x2="200.7" y2="216.81"/><path class="cls-4" d="M163.9,116.42c-5.07,10-11.52,14.08-11.52,14.08a11.5,11.5,0,0,1-3.44-.26c-.86-.39,8.35-13.37,8.35-13.37"/><path class="cls-4" d="M89.58,125.69a3.68,3.68,0,0,1-4.38,2.52c-3.76-.86-7.16-.07-8.55,2.32-1.94,3.35.77,8.54,6.06,11.61,0,0,16.46,9.43,21.41,17.4l.55,2.41s-18.47-3.22-34.44-12.33c-7.88-4.5-11.07-14.53-6.73-22.5a16.54,16.54,0,0,1,22.83-6.4s4.1,1.77,3.28,4.88Z"/><path class="cls-4" d="M87.34,121.26c10,5.07,14.08,11.52,14.08,11.52a11.85,11.85,0,0,1-.26,3.44c-.39.86-13.37-8.35-13.37-8.35"/><circle class="cls-3" cx="98.06" cy="160.08" r="1.41"/><path class="cls-4" d="M80.77,140.84s-6.47,4.52-5.94,11.22"/><path class="cls-4" d="M77.78,137.74s-9.27-1.82-13.45,6.31"/><path class="cls-4" d="M76.23,131.55s-9.29-3.73-13.58-2.59"/><path class="cls-4" d="M79.13,128.45a30,30,0,0,0-10.66-6.93"/><path class="cls-4" d="M77.57,118.49s8.09,6.47,6.6,9.53"/><path class="cls-4" d="M92.18,197.82c5.07-10,11.52-14.08,11.52-14.08a11.85,11.85,0,0,1,3.44.26c.86.39-8.35,13.37-8.35,13.37"/><path class="cls-4" d="M96.61,195.58A3.68,3.68,0,0,1,99.13,200c-.87,3.76-.07,7.16,2.32,8.55,3.34,1.94,8.54-.77,11.61-6.06,0,0,9.43-16.46,17.39-21.41l2.41-.55s-3.21,18.47-12.33,34.44C116,222.81,106,226,98,221.66a16.54,16.54,0,0,1-6.4-22.83s1.77-4.1,4.88-3.28Z"/><circle class="cls-3" cx="131" cy="187.1" r="1.41"/><path class="cls-4" d="M111.75,204.39s4.53,6.47,11.23,5.94"/><path class="cls-4" d="M108.66,207.38s-1.83,9.27,6.31,13.45"/><path class="cls-4" d="M102.47,208.93s-3.73,9.29-2.59,13.59"/><path class="cls-4" d="M99.37,206a30,30,0,0,0-6.93,10.66"/><path class="cls-4" d="M89.41,207.59s6.47-8.09,9.53-6.6"/><path class="cls-4" d="M168.74,193c-10-5.07-14.08-11.52-14.08-11.52a11.5,11.5,0,0,1,.26-3.44c.39-.86,13.37,8.35,13.37,8.35"/><path class="cls-4" d="M166.5,188.55a3.68,3.68,0,0,1,4.38-2.52c3.76.87,7.16.07,8.55-2.32,1.94-3.34-.77-8.54-6.06-11.61,0,0-16.46-9.43-21.41-17.39l-.55-2.41s18.46,3.21,34.44,12.33c7.88,4.49,11.07,14.52,6.73,22.49a16.54,16.54,0,0,1-22.83,6.4s-4.1-1.77-3.28-4.88Z"/><circle class="cls-3" cx="158.01" cy="154.17" r="1.41"/><path class="cls-4" d="M175.31,173.41s6.46-4.53,5.93-11.23"/><path class="cls-4" d="M178.3,176.5s9.27,1.83,13.45-6.31"/><path class="cls-4" d="M179.85,182.69s9.29,3.73,13.58,2.59"/><path class="cls-4" d="M176.94,185.79a30.05,30.05,0,0,0,10.67,6.93"/><path class="cls-4" d="M178.51,195.75s-8.09-6.47-6.6-9.53"/><rect class="cls-7" x="163.99" y="223.79" width="9.51" height="22.73"/><rect class="cls-7" x="127.08" y="133.34" width="9.51" height="22.73" transform="translate(-12.86 276.55) rotate(-90)"/><rect class="cls-8" x="116.94" y="163.81" width="7.07" height="16.88" transform="translate(83.87 379.24) rotate(-135)"/><rect class="cls-8" x="116.94" y="91.18" width="7.07" height="16.88" transform="translate(240.95 199.25) rotate(180)"/><rect class="cls-8" x="90.64" y="234.31" width="7.07" height="16.88" transform="translate(332.41 347.81) rotate(135)"/><rect class="cls-7" x="33.68" y="190.69" width="9.51" height="22.73" transform="translate(-163.62 240.49) rotate(-90)"/><rect class="cls-7" x="161.92" y="55.96" width="9.51" height="22.73" transform="translate(99.35 234) rotate(-90)"/><rect class="cls-7" x="40.29" y="108.15" width="9.51" height="22.73"/><path class="cls-4" d="M159.47,118.66a3.68,3.68,0,0,1-2.52-4.38c.86-3.76.07-7.16-2.32-8.55-3.35-1.94-8.54.77-11.61,6.06,0,0-9.43,16.46-17.39,21.41l-2.42.55s3.22-18.46,12.33-34.44c4.5-7.88,14.53-11.07,22.5-6.73a16.54,16.54,0,0,1,6.4,22.83s-1.77,4.1-4.88,3.28Z"/><circle class="cls-3" cx="125.08" cy="127.15" r="1.41"/><path class="cls-4" d="M144.32,109.85s-4.52-6.46-11.22-5.93"/><path class="cls-4" d="M147.42,106.86s1.82-9.27-6.31-13.45"/><path class="cls-4" d="M153.61,105.31s3.73-9.29,2.59-13.58"/><path class="cls-4" d="M156.71,108.22a30.05,30.05,0,0,0,6.93-10.67"/><path class="cls-4" d="M166.67,106.65s-6.47,8.09-9.53,6.6"/><path class="cls-3" d="M55,195.73c15.34,2.25,30.83-21,30.83-21s-27.12-6.84-37,5.13A9.87,9.87,0,0,0,55,195.73Z"/><path class="cls-4" d="M55.48,191.56c5,.73,10.06-3.38,13.41-7a3.48,3.48,0,0,0-2.27-5.87c-4.88-.4-11.38,0-14.6,3.86A5.52,5.52,0,0,0,55.48,191.56Z"/><ellipse class="cls-5" cx="213.49" cy="119" rx="10.66" ry="14.53" transform="translate(-21.61 185.82) rotate(-45)"/><ellipse class="cls-2" cx="213.49" cy="119" rx="7.3" ry="10.88" transform="translate(-21.61 185.82) rotate(-45)"/><path class="cls-5" d="M240,148a18.34,18.34,0,0,1-36.68,0Z"/><path class="cls-2" d="M236.79,148a15.17,15.17,0,1,1-30.33,0Z"/><line class="cls-6" x1="221.63" y1="163.12" x2="221.63" y2="147.95"/><line class="cls-6" x1="210.92" y1="158.69" x2="221.63" y2="147.95"/><line class="cls-6" x1="232.34" y1="158.69" x2="221.63" y2="147.95"/></svg>